<svg width="144" height="43" viewBox="0 0 144 43" fill="none" xmlns="http://www.w3.org/2000/svg">
<path d="M4.69183 17.5803C4.69183 17.5803 8.83843 11.534 17.1316 10.9078V8.71483C7.94884 9.44017 0 17.1185 0 17.1185C0 17.1185 4.5053 29.9705 17.1316 31.1492V28.8145C7.86276 27.6642 4.69183 17.5803 4.69183 17.5803ZM17.1316 24.1792V26.3127C10.1298 25.0802 8.18415 17.892 8.18415 17.892C8.18415 17.892 11.5445 14.2143 17.1316 13.6165V15.9625H17.1201C14.1903 15.614 11.8974 18.3142 11.8974 18.3142C11.8974 18.3142 13.183 22.8673 17.1316 24.1792ZM17.2177 3L17.1316 8.71483C17.401 8.6934 17.6708 8.67735 17.9409 8.66667C28.3777 8.31817 35.1787 17.1185 35.1787 17.1185C35.1787 17.1185 27.3676 26.4968 19.2322 26.4968C18.4861 26.4931 17.7859 26.4317 17.1316 26.3127V28.8145C17.6902 28.8882 18.2737 28.9259 18.8821 28.9278C26.4522 28.9278 31.9274 25.1085 37.2304 20.5893C38.1114 21.2863 41.7099 22.975 42.4503 23.7173C37.4084 27.8823 25.6573 31.2455 18.9969 31.2455C18.374 31.242 17.7515 31.2098 17.1316 31.1492V37H45.9139L46 3H17.2177ZM17.1316 13.6165V10.9078C17.401 10.8874 17.6708 10.8732 17.9409 10.8653C25.4478 10.633 30.3721 17.2347 30.3721 17.2347C30.3721 17.2347 25.0518 24.5277 19.3498 24.5277C18.5291 24.5277 17.7945 24.3973 17.1316 24.1792V15.9625C20.0529 16.311 20.6412 17.5832 22.3974 20.476L26.3058 17.2233C26.3058 17.2233 23.4534 13.5287 18.6439 13.5287C18.1386 13.5316 17.6338 13.5609 17.1316 13.6165Z" fill="black"/>
<path d="M60.78 3.1V17H58.5V3.1H60.78ZM68.3334 5.8C69.2001 5.8 69.9734 5.98 70.6534 6.34C71.3468 6.7 71.8868 7.23333 72.2734 7.94C72.6601 8.64667 72.8534 9.5 72.8534 10.5V17H70.5934V10.84C70.5934 9.85333 70.3468 9.1 69.8534 8.58C69.3601 8.04667 68.6868 7.78 67.8334 7.78C66.9801 7.78 66.3001 8.04667 65.7934 8.58C65.3001 9.1 65.0534 9.85333 65.0534 10.84V17H62.7734V5.98H65.0534V7.24C65.4268 6.78667 65.9001 6.43333 66.4734 6.18C67.0601 5.92667 67.6801 5.8 68.3334 5.8ZM74.0017 11.48C74.0017 10.3467 74.2284 9.35333 74.6817 8.5C75.1484 7.63333 75.7884 6.96667 76.6017 6.5C77.4151 6.03333 78.3484 5.8 79.4017 5.8C80.7351 5.8 81.8351 6.12 82.7017 6.76C83.5817 7.38667 84.1751 8.28667 84.4817 9.46H82.0217C81.8217 8.91333 81.5017 8.48667 81.0617 8.18C80.6217 7.87333 80.0684 7.72 79.4017 7.72C78.4684 7.72 77.7217 8.05333 77.1617 8.72C76.6151 9.37333 76.3417 10.2933 76.3417 11.48C76.3417 12.6667 76.6151 13.5933 77.1617 14.26C77.7217 14.9267 78.4684 15.26 79.4017 15.26C80.7217 15.26 81.5951 14.68 82.0217 13.52H84.4817C84.1617 14.64 83.5617 15.5333 82.6817 16.2C81.8017 16.8533 80.7084 17.18 79.4017 17.18C78.3484 17.18 77.4151 16.9467 76.6017 16.48C75.7884 16 75.1484 15.3333 74.6817 14.48C74.2284 13.6133 74.0017 12.6133 74.0017 11.48ZM95.8539 11.22C95.8539 11.6333 95.8272 12.0067 95.7739 12.34H87.3539C87.4206 13.22 87.7472 13.9267 88.3339 14.46C88.9206 14.9933 89.6406 15.26 90.4939 15.26C91.7206 15.26 92.5872 14.7467 93.0939 13.72H95.5539C95.2206 14.7333 94.6139 15.5667 93.7339 16.22C92.8672 16.86 91.7872 17.18 90.4939 17.18C89.4406 17.18 88.4939 16.9467 87.6539 16.48C86.8272 16 86.1739 15.3333 85.6939 14.48C85.2272 13.6133 84.9939 12.6133 84.9939 11.48C84.9939 10.3467 85.2206 9.35333 85.6739 8.5C86.1406 7.63333 86.7872 6.96667 87.6139 6.5C88.4539 6.03333 89.4139 5.8 90.4939 5.8C91.5339 5.8 92.4606 6.02667 93.2739 6.48C94.0872 6.93333 94.7206 7.57333 95.1739 8.4C95.6272 9.21333 95.8539 10.1533 95.8539 11.22ZM93.4739 10.5C93.4606 9.66 93.1606 8.98667 92.5739 8.48C91.9872 7.97333 91.2606 7.72 90.3939 7.72C89.6072 7.72 88.9339 7.97333 88.3739 8.48C87.8139 8.97333 87.4806 9.64667 87.3739 10.5H93.4739ZM99.3777 7.6C99.7643 7.09333 100.291 6.66667 100.958 6.32C101.624 5.97333 102.378 5.8 103.218 5.8C104.178 5.8 105.051 6.04 105.838 6.52C106.638 6.98667 107.264 7.64667 107.718 8.5C108.171 9.35333 108.398 10.3333 108.398 11.44C108.398 12.5467 108.171 13.54 107.718 14.42C107.264 15.2867 106.638 15.9667 105.838 16.46C105.051 16.94 104.178 17.18 103.218 17.18C102.378 17.18 101.631 17.0133 100.978 16.68C100.324 16.3333 99.791 15.9067 99.3777 15.4V22.24H97.0977V5.98H99.3777V7.6ZM106.078 11.44C106.078 10.68 105.918 10.0267 105.598 9.48C105.291 8.92 104.878 8.5 104.358 8.22C103.851 7.92667 103.304 7.78 102.718 7.78C102.144 7.78 101.598 7.92667 101.078 8.22C100.571 8.51333 100.158 8.94 99.8377 9.5C99.531 10.06 99.3777 10.72 99.3777 11.48C99.3777 12.24 99.531 12.9067 99.8377 13.48C100.158 14.04 100.571 14.4667 101.078 14.76C101.598 15.0533 102.144 15.2 102.718 15.2C103.304 15.2 103.851 15.0533 104.358 14.76C104.878 14.4533 105.291 14.0133 105.598 13.44C105.918 12.8667 106.078 12.2 106.078 11.44ZM112.312 7.84V13.94C112.312 14.3533 112.406 14.6533 112.592 14.84C112.792 15.0133 113.126 15.1 113.592 15.1H114.992V17H113.192C112.166 17 111.379 16.76 110.832 16.28C110.286 15.8 110.012 15.02 110.012 13.94V7.84H108.712V5.98H110.012V3.24H112.312V5.98H114.992V7.84H112.312ZM117.254 4.52C116.84 4.52 116.494 4.38 116.214 4.1C115.934 3.82 115.794 3.47333 115.794 3.06C115.794 2.64667 115.934 2.3 116.214 2.02C116.494 1.74 116.84 1.6 117.254 1.6C117.654 1.6 117.994 1.74 118.274 2.02C118.554 2.3 118.694 2.64667 118.694 3.06C118.694 3.47333 118.554 3.82 118.274 4.1C117.994 4.38 117.654 4.52 117.254 4.52ZM118.374 5.98V17H116.094V5.98H118.374ZM125.147 17.18C124.107 17.18 123.167 16.9467 122.327 16.48C121.487 16 120.827 15.3333 120.347 14.48C119.867 13.6133 119.627 12.6133 119.627 11.48C119.627 10.36 119.874 9.36667 120.367 8.5C120.861 7.63333 121.534 6.96667 122.387 6.5C123.241 6.03333 124.194 5.8 125.247 5.8C126.301 5.8 127.254 6.03333 128.107 6.5C128.961 6.96667 129.634 7.63333 130.127 8.5C130.621 9.36667 130.867 10.36 130.867 11.48C130.867 12.6 130.614 13.5933 130.107 14.46C129.601 15.3267 128.907 16 128.027 16.48C127.161 16.9467 126.201 17.18 125.147 17.18ZM125.147 15.2C125.734 15.2 126.281 15.06 126.787 14.78C127.307 14.5 127.727 14.08 128.047 13.52C128.367 12.96 128.527 12.28 128.527 11.48C128.527 10.68 128.374 10.0067 128.067 9.46C127.761 8.9 127.354 8.48 126.847 8.2C126.341 7.92 125.794 7.78 125.207 7.78C124.621 7.78 124.074 7.92 123.567 8.2C123.074 8.48 122.681 8.9 122.387 9.46C122.094 10.0067 121.947 10.68 121.947 11.48C121.947 12.6667 122.247 13.5867 122.847 14.24C123.461 14.88 124.227 15.2 125.147 15.2ZM137.681 5.8C138.548 5.8 139.321 5.98 140.001 6.34C140.694 6.7 141.234 7.23333 141.621 7.94C142.008 8.64667 142.201 9.5 142.201 10.5V17H139.941V10.84C139.941 9.85333 139.694 9.1 139.201 8.58C138.708 8.04667 138.034 7.78 137.181 7.78C136.328 7.78 135.648 8.04667 135.141 8.58C134.648 9.1 134.401 9.85333 134.401 10.84V17H132.121V5.98H134.401V7.24C134.774 6.78667 135.248 6.43333 135.821 6.18C136.408 5.92667 137.028 5.8 137.681 5.8ZM68.22 27.24C68.22 27.9467 68.0533 28.6133 67.72 29.24C67.3867 29.8667 66.8533 30.38 66.12 30.78C65.3867 31.1667 64.4467 31.36 63.3 31.36H60.78V37H58.5V23.1H63.3C64.3667 23.1 65.2667 23.2867 66 23.66C66.7467 24.02 67.3 24.5133 67.66 25.14C68.0333 25.7667 68.22 26.4667 68.22 27.24ZM63.3 29.5C64.1667 29.5 64.8133 29.3067 65.24 28.92C65.6667 28.52 65.88 27.96 65.88 27.24C65.88 25.72 65.02 24.96 63.3 24.96H60.78V29.5H63.3ZM71.6745 27.58C72.0079 27.02 72.4479 26.5867 72.9945 26.28C73.5545 25.96 74.2145 25.8 74.9745 25.8V28.16H74.3945C73.5012 28.16 72.8212 28.3867 72.3545 28.84C71.9012 29.2933 71.6745 30.08 71.6745 31.2V37H69.3945V25.98H71.6745V27.58ZM80.8503 37.18C79.8103 37.18 78.8703 36.9467 78.0303 36.48C77.1903 36 76.5303 35.3333 76.0503 34.48C75.5703 33.6133 75.3303 32.6133 75.3303 31.48C75.3303 30.36 75.577 29.3667 76.0703 28.5C76.5636 27.6333 77.237 26.9667 78.0903 26.5C78.9436 26.0333 79.897 25.8 80.9503 25.8C82.0036 25.8 82.957 26.0333 83.8103 26.5C84.6636 26.9667 85.337 27.6333 85.8303 28.5C86.3236 29.3667 86.5703 30.36 86.5703 31.48C86.5703 32.6 86.317 33.5933 85.8103 34.46C85.3036 35.3267 84.6103 36 83.7303 36.48C82.8636 36.9467 81.9036 37.18 80.8503 37.18ZM80.8503 35.2C81.437 35.2 81.9836 35.06 82.4903 34.78C83.0103 34.5 83.4303 34.08 83.7503 33.52C84.0703 32.96 84.2303 32.28 84.2303 31.48C84.2303 30.68 84.077 30.0067 83.7703 29.46C83.4636 28.9 83.057 28.48 82.5503 28.2C82.0436 27.92 81.497 27.78 80.9103 27.78C80.3236 27.78 79.777 27.92 79.2703 28.2C78.777 28.48 78.3836 28.9 78.0903 29.46C77.797 30.0067 77.6503 30.68 77.6503 31.48C77.6503 32.6667 77.9503 33.5867 78.5503 34.24C79.1636 34.88 79.9303 35.2 80.8503 35.2ZM92.2642 25.8C93.1176 25.8 93.8709 25.9733 94.5242 26.32C95.1909 26.6533 95.7109 27.0733 96.0842 27.58V25.98H98.3842V37.18C98.3842 38.1933 98.1709 39.0933 97.7442 39.88C97.3176 40.68 96.6976 41.3067 95.8842 41.76C95.0842 42.2133 94.1242 42.44 93.0042 42.44C91.5109 42.44 90.2709 42.0867 89.2842 41.38C88.2976 40.6867 87.7376 39.74 87.6042 38.54H89.8642C90.0376 39.1133 90.4042 39.5733 90.9642 39.92C91.5376 40.28 92.2176 40.46 93.0042 40.46C93.9242 40.46 94.6642 40.18 95.2242 39.62C95.7976 39.06 96.0842 38.2467 96.0842 37.18V35.34C95.6976 35.86 95.1709 36.3 94.5042 36.66C93.8509 37.0067 93.1042 37.18 92.2642 37.18C91.3042 37.18 90.4242 36.94 89.6242 36.46C88.8376 35.9667 88.2109 35.2867 87.7442 34.42C87.2909 33.54 87.0642 32.5467 87.0642 31.44C87.0642 30.3333 87.2909 29.3533 87.7442 28.5C88.2109 27.6467 88.8376 26.9867 89.6242 26.52C90.4242 26.04 91.3042 25.8 92.2642 25.8ZM96.0842 31.48C96.0842 30.72 95.9242 30.06 95.6042 29.5C95.2976 28.94 94.8909 28.5133 94.3842 28.22C93.8776 27.9267 93.3309 27.78 92.7442 27.78C92.1576 27.78 91.6109 27.9267 91.1042 28.22C90.5976 28.5 90.1842 28.92 89.8642 29.48C89.5576 30.0267 89.4042 30.68 89.4042 31.44C89.4042 32.2 89.5576 32.8667 89.8642 33.44C90.1842 34.0133 90.5976 34.4533 91.1042 34.76C91.6242 35.0533 92.1709 35.2 92.7442 35.2C93.3309 35.2 93.8776 35.0533 94.3842 34.76C94.8909 34.4667 95.2976 34.04 95.6042 33.48C95.9242 32.9067 96.0842 32.24 96.0842 31.48ZM102.659 27.58C102.992 27.02 103.432 26.5867 103.979 26.28C104.539 25.96 105.199 25.8 105.959 25.8V28.16H105.379C104.486 28.16 103.806 28.3867 103.339 28.84C102.886 29.2933 102.659 30.08 102.659 31.2V37H100.379V25.98H102.659V27.58ZM106.295 31.44C106.295 30.3333 106.521 29.3533 106.975 28.5C107.441 27.6467 108.068 26.9867 108.855 26.52C109.655 26.04 110.535 25.8 111.495 25.8C112.361 25.8 113.115 25.9733 113.755 26.32C114.408 26.6533 114.928 27.0733 115.315 27.58V25.98H117.615V37H115.315V35.36C114.928 35.88 114.401 36.3133 113.735 36.66C113.068 37.0067 112.308 37.18 111.455 37.18C110.508 37.18 109.641 36.94 108.855 36.46C108.068 35.9667 107.441 35.2867 106.975 34.42C106.521 33.54 106.295 32.5467 106.295 31.44ZM115.315 31.48C115.315 30.72 115.155 30.06 114.835 29.5C114.528 28.94 114.121 28.5133 113.615 28.22C113.108 27.9267 112.561 27.78 111.975 27.78C111.388 27.78 110.841 27.9267 110.335 28.22C109.828 28.5 109.415 28.92 109.095 29.48C108.788 30.0267 108.635 30.68 108.635 31.44C108.635 32.2 108.788 32.8667 109.095 33.44C109.415 34.0133 109.828 34.4533 110.335 34.76C110.855 35.0533 111.401 35.2 111.975 35.2C112.561 35.2 113.108 35.0533 113.615 34.76C114.121 34.4667 114.528 34.04 114.835 33.48C115.155 32.9067 115.315 32.24 115.315 31.48ZM132.949 25.8C133.816 25.8 134.589 25.98 135.269 26.34C135.963 26.7 136.503 27.2333 136.889 27.94C137.289 28.6467 137.489 29.5 137.489 30.5V37H135.229V30.84C135.229 29.8533 134.983 29.1 134.489 28.58C133.996 28.0467 133.323 27.78 132.469 27.78C131.616 27.78 130.936 28.0467 130.429 28.58C129.936 29.1 129.689 29.8533 129.689 30.84V37H127.429V30.84C127.429 29.8533 127.183 29.1 126.689 28.58C126.196 28.0467 125.523 27.78 124.669 27.78C123.816 27.78 123.136 28.0467 122.629 28.58C122.136 29.1 121.889 29.8533 121.889 30.84V37H119.609V25.98H121.889V27.24C122.263 26.7867 122.736 26.4333 123.309 26.18C123.883 25.9267 124.496 25.8 125.149 25.8C126.029 25.8 126.816 25.9867 127.509 26.36C128.203 26.7333 128.736 27.2733 129.109 27.98C129.443 27.3133 129.963 26.7867 130.669 26.4C131.376 26 132.136 25.8 132.949 25.8Z" fill="black"/>
</svg>
