<svg width="283" height="81" viewBox="0 0 283 81" fill="none" xmlns="http://www.w3.org/2000/svg">
<path d="M64.3512 32.32V49H61.6152V41.704H53.7672V49H51.0312V32.32H53.7672V39.472H61.6152V32.32H64.3512ZM72.4891 49.216C71.2411 49.216 70.1131 48.936 69.1051 48.376C68.0971 47.8 67.3051 47 66.7291 45.976C66.1531 44.936 65.8651 43.736 65.8651 42.376C65.8651 41.032 66.1611 39.84 66.7531 38.8C67.3451 37.76 68.1531 36.96 69.1771 36.4C70.2011 35.84 71.3451 35.56 72.6091 35.56C73.8731 35.56 75.0171 35.84 76.0411 36.4C77.0651 36.96 77.8731 37.76 78.4651 38.8C79.0571 39.84 79.3531 41.032 79.3531 42.376C79.3531 43.72 79.0491 44.912 78.4411 45.952C77.8331 46.992 77.0011 47.8 75.9451 48.376C74.9051 48.936 73.7531 49.216 72.4891 49.216ZM72.4891 46.84C73.1931 46.84 73.8491 46.672 74.4571 46.336C75.0811 46 75.5851 45.496 75.9691 44.824C76.3531 44.152 76.5451 43.336 76.5451 42.376C76.5451 41.416 76.3611 40.608 75.9931 39.952C75.6251 39.28 75.1371 38.776 74.5291 38.44C73.9211 38.104 73.2651 37.936 72.5611 37.936C71.8571 37.936 71.2011 38.104 70.5931 38.44C70.0011 38.776 69.5291 39.28 69.1771 39.952C68.8251 40.608 68.6491 41.416 68.6491 42.376C68.6491 43.8 69.0091 44.904 69.7291 45.688C70.4651 46.456 71.3851 46.84 72.4891 46.84ZM83.5938 37.72C84.0578 37.112 84.6898 36.6 85.4898 36.184C86.2898 35.768 87.1938 35.56 88.2018 35.56C89.3538 35.56 90.4018 35.848 91.3458 36.424C92.3058 36.984 93.0578 37.776 93.6018 38.8C94.1458 39.824 94.4178 41 94.4178 42.328C94.4178 43.656 94.1458 44.848 93.6018 45.904C93.0578 46.944 92.3058 47.76 91.3458 48.352C90.4018 48.928 89.3538 49.216 88.2018 49.216C87.1938 49.216 86.2978 49.016 85.5138 48.616C84.7298 48.2 84.0898 47.688 83.5938 47.08V55.288H80.8578V35.776H83.5938V37.72ZM91.6338 42.328C91.6338 41.416 91.4418 40.632 91.0578 39.976C90.6898 39.304 90.1938 38.8 89.5698 38.464C88.9618 38.112 88.3058 37.936 87.6018 37.936C86.9138 37.936 86.2578 38.112 85.6338 38.464C85.0258 38.816 84.5298 39.328 84.1458 40C83.7778 40.672 83.5938 41.464 83.5938 42.376C83.5938 43.288 83.7778 44.088 84.1458 44.776C84.5298 45.448 85.0258 45.96 85.6338 46.312C86.2578 46.664 86.9138 46.84 87.6018 46.84C88.3058 46.84 88.9618 46.664 89.5698 46.312C90.1938 45.944 90.6898 45.416 91.0578 44.728C91.4418 44.04 91.6338 43.24 91.6338 42.328ZM108.043 42.064C108.043 42.56 108.011 43.008 107.947 43.408H97.8434C97.9234 44.464 98.3154 45.312 99.0194 45.952C99.7234 46.592 100.587 46.912 101.611 46.912C103.083 46.912 104.123 46.296 104.731 45.064H107.683C107.283 46.28 106.555 47.28 105.499 48.064C104.459 48.832 103.163 49.216 101.611 49.216C100.347 49.216 99.2114 48.936 98.2034 48.376C97.2114 47.8 96.4274 47 95.8514 45.976C95.2914 44.936 95.0114 43.736 95.0114 42.376C95.0114 41.016 95.2834 39.824 95.8274 38.8C96.3874 37.76 97.1634 36.96 98.1554 36.4C99.1634 35.84 100.315 35.56 101.611 35.56C102.859 35.56 103.971 35.832 104.947 36.376C105.923 36.92 106.683 37.688 107.227 38.68C107.771 39.656 108.043 40.784 108.043 42.064ZM105.187 41.2C105.171 40.192 104.811 39.384 104.107 38.776C103.403 38.168 102.531 37.864 101.491 37.864C100.547 37.864 99.7394 38.168 99.0674 38.776C98.3954 39.368 97.9954 40.176 97.8674 41.2H105.187ZM126.474 35.776L118.362 55.216H115.53L118.218 48.784L113.01 35.776H116.058L119.778 45.856L123.642 35.776H126.474ZM133.075 49.216C131.827 49.216 130.699 48.936 129.691 48.376C128.683 47.8 127.891 47 127.315 45.976C126.739 44.936 126.451 43.736 126.451 42.376C126.451 41.032 126.747 39.84 127.339 38.8C127.931 37.76 128.739 36.96 129.763 36.4C130.787 35.84 131.931 35.56 133.195 35.56C134.459 35.56 135.603 35.84 136.627 36.4C137.651 36.96 138.459 37.76 139.051 38.8C139.643 39.84 139.939 41.032 139.939 42.376C139.939 43.72 139.635 44.912 139.027 45.952C138.419 46.992 137.587 47.8 136.531 48.376C135.491 48.936 134.339 49.216 133.075 49.216ZM133.075 46.84C133.779 46.84 134.435 46.672 135.043 46.336C135.667 46 136.171 45.496 136.555 44.824C136.939 44.152 137.131 43.336 137.131 42.376C137.131 41.416 136.947 40.608 136.579 39.952C136.211 39.28 135.723 38.776 135.115 38.44C134.507 38.104 133.851 37.936 133.147 37.936C132.443 37.936 131.787 38.104 131.179 38.44C130.587 38.776 130.115 39.28 129.763 39.952C129.411 40.608 129.235 41.416 129.235 42.376C129.235 43.8 129.595 44.904 130.315 45.688C131.051 46.456 131.971 46.84 133.075 46.84ZM153.42 35.776V49H150.684V47.44C150.252 47.984 149.684 48.416 148.98 48.736C148.292 49.04 147.556 49.192 146.772 49.192C145.732 49.192 144.796 48.976 143.964 48.544C143.148 48.112 142.5 47.472 142.02 46.624C141.556 45.776 141.324 44.752 141.324 43.552V35.776H144.036V43.144C144.036 44.328 144.332 45.24 144.924 45.88C145.516 46.504 146.324 46.816 147.348 46.816C148.372 46.816 149.18 46.504 149.772 45.88C150.38 45.24 150.684 44.328 150.684 43.144V35.776H153.42ZM163.6 31.24V49H160.864V31.24H163.6ZM167.384 34.024C166.888 34.024 166.472 33.856 166.136 33.52C165.8 33.184 165.632 32.768 165.632 32.272C165.632 31.776 165.8 31.36 166.136 31.024C166.472 30.688 166.888 30.52 167.384 30.52C167.864 30.52 168.272 30.688 168.608 31.024C168.944 31.36 169.112 31.776 169.112 32.272C169.112 32.768 168.944 33.184 168.608 33.52C168.272 33.856 167.864 34.024 167.384 34.024ZM168.728 35.776V49H165.992V35.776H168.728ZM176.352 42.4L182.448 49H178.752L173.856 43.312V49H171.12V31.24H173.856V41.56L178.656 35.776H182.448L176.352 42.4ZM195.329 42.064C195.329 42.56 195.297 43.008 195.233 43.408H185.129C185.209 44.464 185.601 45.312 186.305 45.952C187.009 46.592 187.873 46.912 188.897 46.912C190.369 46.912 191.409 46.296 192.017 45.064H194.969C194.569 46.28 193.841 47.28 192.785 48.064C191.745 48.832 190.449 49.216 188.897 49.216C187.633 49.216 186.497 48.936 185.489 48.376C184.497 47.8 183.713 47 183.137 45.976C182.577 44.936 182.297 43.736 182.297 42.376C182.297 41.016 182.569 39.824 183.113 38.8C183.673 37.76 184.449 36.96 185.441 36.4C186.449 35.84 187.601 35.56 188.897 35.56C190.145 35.56 191.257 35.832 192.233 36.376C193.209 36.92 193.969 37.688 194.513 38.68C195.057 39.656 195.329 40.784 195.329 42.064ZM192.473 41.2C192.457 40.192 192.097 39.384 191.393 38.776C190.689 38.168 189.817 37.864 188.777 37.864C187.833 37.864 187.025 38.168 186.353 38.776C185.681 39.368 185.281 40.176 185.153 41.2H192.473ZM195.91 42.328C195.91 41 196.182 39.824 196.726 38.8C197.286 37.776 198.038 36.984 198.982 36.424C199.942 35.848 201.006 35.56 202.174 35.56C203.038 35.56 203.886 35.752 204.718 36.136C205.566 36.504 206.238 37 206.734 37.624V31.24H209.494V49H206.734V47.008C206.286 47.648 205.662 48.176 204.862 48.592C204.078 49.008 203.174 49.216 202.15 49.216C200.998 49.216 199.942 48.928 198.982 48.352C198.038 47.76 197.286 46.944 196.726 45.904C196.182 44.848 195.91 43.656 195.91 42.328ZM206.734 42.376C206.734 41.464 206.542 40.672 206.158 40C205.79 39.328 205.302 38.816 204.694 38.464C204.086 38.112 203.43 37.936 202.726 37.936C202.022 37.936 201.366 38.112 200.758 38.464C200.15 38.8 199.654 39.304 199.27 39.976C198.902 40.632 198.718 41.416 198.718 42.328C198.718 43.24 198.902 44.04 199.27 44.728C199.654 45.416 200.15 45.944 200.758 46.312C201.382 46.664 202.038 46.84 202.726 46.84C203.43 46.84 204.086 46.664 204.694 46.312C205.302 45.96 205.79 45.448 206.158 44.776C206.542 44.088 206.734 43.288 206.734 42.376ZM218.314 34.024C217.818 34.024 217.402 33.856 217.066 33.52C216.73 33.184 216.562 32.768 216.562 32.272C216.562 31.776 216.73 31.36 217.066 31.024C217.402 30.688 217.818 30.52 218.314 30.52C218.794 30.52 219.202 30.688 219.538 31.024C219.874 31.36 220.042 31.776 220.042 32.272C220.042 32.768 219.874 33.184 219.538 33.52C219.202 33.856 218.794 34.024 218.314 34.024ZM219.658 35.776V49H216.922V35.776H219.658ZM225.242 38.008V45.328C225.242 45.824 225.354 46.184 225.578 46.408C225.818 46.616 226.218 46.72 226.778 46.72H228.458V49H226.298C225.066 49 224.122 48.712 223.466 48.136C222.81 47.56 222.482 46.624 222.482 45.328V38.008H220.922V35.776H222.482V32.488H225.242V35.776H228.458V38.008H225.242ZM230.884 49.168C230.388 49.168 229.972 49 229.636 48.664C229.3 48.328 229.132 47.912 229.132 47.416C229.132 46.92 229.3 46.504 229.636 46.168C229.972 45.832 230.388 45.664 230.884 45.664C231.364 45.664 231.772 45.832 232.108 46.168C232.444 46.504 232.612 46.92 232.612 47.416C232.612 47.912 232.444 48.328 232.108 48.664C231.772 49 231.364 49.168 230.884 49.168Z" fill="black"/>
<path d="M51.0439 55.176H231.948" stroke="#5395F6" stroke-width="3" stroke-linecap="round"/>
</svg>
